<svg width="1024" height="768" viewBox="0 0 1024 768" fill="none" xmlns="http://www.w3.org/2000/svg">
<g clip-path="url(#clip0_2527_245)">
<rect width="1024" height="768" fill="#0F1213"/>
<ellipse opacity="0.5" cx="799.336" cy="479.052" rx="799.336" ry="479.052" transform="matrix(-0.993699 0.112078 0.112078 0.993699 1226.86 -282.161)" fill="url(#paint0_radial_2527_245)"/>
<path opacity="0.12" d="M125.368 1.23731V71.9612M125.368 71.9612V213.409M125.368 71.9612H266.816M125.368 71.9612H54.6444M125.368 213.409V354.857M125.368 213.409H266.816M125.368 213.409H54.6444M125.368 354.857V496.305M125.368 354.857H266.816M125.368 354.857H54.6444M125.368 496.305V637.752M125.368 496.305H266.816M125.368 496.305L54.6444 496.305M125.368 637.752V708.476M125.368 637.752H266.816M125.368 637.752H54.6445M266.816 1.23731V71.9612M266.816 71.9612L266.816 213.409M266.816 71.9612H408.264M266.816 213.409V354.857M266.816 213.409H408.264M266.816 354.857V496.305M266.816 354.857H408.264M266.816 496.305V637.752M266.816 496.305H408.264M266.816 637.752V708.476M266.816 637.752L408.264 637.752M408.264 1.23731V71.9612M408.264 71.9612V213.409M408.264 71.9612H549.712M408.264 213.409V354.857M408.264 213.409H549.712M408.264 354.857V496.305M408.264 354.857H549.712M408.264 496.305V637.752M408.264 496.305H549.712M408.264 637.752V708.476M408.264 637.752H549.712M549.712 1.23731V71.9612M549.712 71.9612V213.409M549.712 71.9612H691.16M549.712 213.409V354.857M549.712 213.409H691.16M549.712 354.857V496.305M549.712 354.857L691.16 354.857M549.712 496.305V637.752M549.712 496.305H691.16M549.712 637.752V708.476M549.712 637.752H691.16M691.16 1.2373V71.9612M691.16 71.9612V213.409M691.16 71.9612H761.883M691.16 213.409V354.857M691.16 213.409H761.883M691.16 354.857V496.305M691.16 354.857H761.883M691.16 496.305V637.752M691.16 496.305H761.883M691.16 637.752V708.476M691.16 637.752H761.883M-441.724 1.23731V71.9612M-441.724 71.9612L-441.724 213.409M-441.724 71.9612H-300.276M-441.724 71.9612H-512.448M-441.724 213.409V354.857M-441.724 213.409H-300.276M-441.724 213.409H-512.448M-441.724 354.857L-441.724 496.305M-441.724 354.857H-300.276M-441.724 354.857H-512.448M-441.724 496.305L-441.724 637.752M-441.724 496.305H-300.276M-441.724 496.305L-512.448 496.305M-441.724 637.752V708.476M-441.724 637.752H-300.276M-441.724 637.752H-512.448M-300.276 1.23731V71.9612M-300.276 71.9612V213.409M-300.276 71.9612H-158.828M-300.276 213.409V354.857M-300.276 213.409H-158.828M-300.276 354.857L-300.276 496.305M-300.276 354.857H-158.828M-300.276 496.305V637.752M-300.276 496.305H-158.828M-300.276 637.752V708.476M-300.276 637.752L-158.828 637.752M-158.828 1.23731V71.9612M-158.828 71.9612L-158.828 213.409M-158.828 71.9612H-17.3802M-158.828 213.409V354.857M-158.828 213.409H-17.3802M-158.828 354.857V496.305M-158.828 354.857H-17.3802M-158.828 496.305V637.752M-158.828 496.305H-17.3802M-158.828 637.752V708.476M-158.828 637.752H-17.3802M-17.3802 1.23731V71.9612M-17.3802 71.9612V213.409M-17.3802 71.9612H124.068M-17.3802 213.409V354.857M-17.3802 213.409H124.068M-17.3802 354.857V496.305M-17.3802 354.857L124.068 354.857M-17.3802 496.305V637.752M-17.3802 496.305H124.068M-17.3802 637.752L-17.3802 708.476M-17.3802 637.752H124.068M124.068 1.2373V71.9612M124.068 71.9612V213.409M124.068 71.9612H194.791M124.068 213.409V354.857M124.068 213.409H194.791M124.068 354.857L124.068 496.305M124.068 354.857H194.792M124.068 496.305V637.752M124.068 496.305H194.792M124.068 637.752V708.476M124.068 637.752H194.792M1258.14 1.23741V71.9613M1258.14 71.9613V213.409M1258.14 71.9613L1116.69 71.9613M1258.14 71.9613L1328.87 71.9613M1258.14 213.409V354.857M1258.14 213.409H1116.69M1258.14 213.409H1328.87M1258.14 354.857L1258.14 496.305M1258.14 354.857H1116.69M1258.14 354.857H1328.87M1258.14 496.305V637.752M1258.14 496.305H1116.69M1258.14 496.305H1328.87M1258.14 637.752V708.476M1258.14 637.752H1116.69M1258.14 637.752H1328.87M1116.69 1.23742V71.9613M1116.69 71.9613V213.409M1116.69 71.9613H975.247M1116.69 213.409V354.857M1116.69 213.409L975.247 213.409M1116.69 354.857V496.305M1116.69 354.857H975.247M1116.69 496.305V637.752M1116.69 496.305H975.247M1116.69 637.752V708.476M1116.69 637.752H975.247M975.247 1.23742V71.9613M975.247 71.9613V213.409M975.247 71.9613L833.799 71.9613M975.247 213.409V354.857M975.247 213.409H833.799M975.247 354.857V496.305M975.247 354.857H833.799M975.247 496.305V637.752M975.247 496.305H833.799M975.247 637.752V708.476M975.247 637.752H833.799M833.799 1.23742V71.9613M833.799 71.9613V213.409M833.799 71.9613L692.352 71.9613M833.799 213.409V354.857M833.799 213.409H692.352M833.799 354.857V496.305M833.799 354.857H692.352M833.799 496.305V637.752M833.799 496.305H692.352M833.799 637.752V708.476M833.799 637.752H692.352M692.352 1.23742V71.9613M692.352 71.9613V213.409M692.352 71.9613H621.628M692.352 213.409V354.857M692.352 213.409H621.628M692.352 354.857V496.305M692.352 354.857H621.628M692.352 496.305V637.752M692.352 496.305H621.628M692.352 637.752V708.476M692.352 637.752H621.628" stroke="url(#paint1_radial_2527_245)" stroke-width="4.71493" stroke-linecap="round"/>
<g filter="url(#filter0_d_2527_245)">
<path d="M337.32 455.401L517.266 437.199L435.995 493.431L492.052 533.455L271.725 635.913L439.605 716.975L108.5 887L70.0284 778.358L-226.759 1029.71L-514.368 1016.08L-499.933 751.793L-130.423 679.06L-248.089 596.293L156.416 578.306L29.0631 520.518L397.871 472.476L337.32 455.401Z" fill="#FFED2C"/>
</g>
<g filter="url(#filter1_d_2527_245)">
<path d="M388.863 598.731C442.566 641.496 474.728 692.956 460.698 713.671L439.114 745.621L244.636 590.756C253.042 578.345 258.135 569.209 264.585 560.604C278.615 539.889 335.159 555.967 388.863 598.731Z" fill="url(#paint2_linear_2527_245)"/>
<path d="M459.836 713.034L459.835 713.035L438.83 744.127L246.034 590.601C249.373 585.643 252.172 581.238 254.747 577.185C258.455 571.348 261.698 566.244 265.421 561.277L265.434 561.259L265.447 561.241C268.748 556.368 274.606 553.567 282.547 552.845C290.488 552.123 300.41 553.495 311.633 556.859C334.074 563.586 361.509 578.218 388.272 599.529C415.045 620.849 436.412 644.31 449.326 664.973C455.785 675.307 460.1 684.895 461.944 693.134C463.789 701.375 463.14 708.155 459.836 713.034Z" stroke="#FFED2C" stroke-width="2.06616"/>
</g>
<g filter="url(#filter2_d_2527_245)">
<path d="M439.064 745.584C453.094 724.869 420.932 673.408 367.229 630.644C313.525 587.879 258.616 570.004 244.587 590.719C230.557 611.435 262.718 662.895 316.422 705.66C370.125 748.424 425.034 766.299 439.064 745.584Z" fill="url(#paint3_radial_2527_245)"/>
<path d="M366.638 631.442C393.411 652.761 414.778 676.222 427.692 696.885C434.151 707.219 438.466 716.807 440.31 725.046C442.155 733.288 441.506 740.068 438.202 744.947C434.904 749.817 429.153 752.504 421.377 753.06C413.594 753.616 403.879 752.026 392.858 748.438C370.821 741.264 343.787 726.182 317.012 704.862C290.239 683.542 268.872 660.081 255.958 639.418C249.5 629.084 245.184 619.496 243.34 611.257C241.496 603.016 242.144 596.235 245.449 591.357C248.747 586.487 254.497 583.799 262.274 583.243C270.057 582.687 279.771 584.278 290.793 587.866C312.829 595.039 339.864 610.121 366.638 631.442Z" stroke="#FFED2C" stroke-width="2.06616"/>
</g>
<g opacity="0.9">
<g filter="url(#filter3_d_2527_245)">
<path d="M564.616 339.404C632.737 274.565 668.089 201.125 643.577 175.372L605.849 135.645L359.161 370.448C373.847 385.878 383.086 397.391 394.161 408.001C418.674 433.754 496.495 404.243 564.616 339.404Z" fill="url(#paint4_linear_2527_245)"/>
<path d="M564.616 339.404C632.737 274.565 668.089 201.125 643.577 175.372L605.849 135.645L359.161 370.448C373.847 385.878 383.086 397.391 394.161 408.001C418.674 433.754 496.495 404.243 564.616 339.404Z" fill="black" fill-opacity="0.1"/>
<path d="M641.62 177.234L641.618 177.232L605.752 139.465L362.974 370.547C368.386 376.288 373.059 381.484 377.369 386.277C378.267 387.276 379.15 388.258 380.021 389.223C385.547 395.352 390.569 400.819 396.03 406.051L396.075 406.094L396.117 406.139C401.536 411.832 410.134 414.717 421.52 414.565C432.89 414.412 446.709 411.222 462.043 405.163C492.694 393.051 528.894 369.677 562.754 337.448C596.641 305.194 622.286 270.881 636.4 241.559C643.462 226.889 647.572 213.603 648.468 202.531C649.363 191.456 647.031 182.918 641.62 177.234Z" stroke="#FFED2C" stroke-width="5.40164"/>
</g>
<path d="M605.829 135.751C630.341 161.504 594.989 234.944 526.868 299.783C458.747 364.622 383.653 396.308 359.141 370.555C334.628 344.802 369.98 271.362 438.101 206.523C506.222 141.684 581.316 109.998 605.829 135.751Z" fill="white"/>
<path d="M605.829 135.751C630.341 161.504 594.989 234.944 526.868 299.783C458.747 364.622 383.653 396.308 359.141 370.555C334.628 344.802 369.98 271.362 438.101 206.523C506.222 141.684 581.316 109.998 605.829 135.751Z" fill="url(#paint5_radial_2527_245)" fill-opacity="0.3"/>
<g filter="url(#filter4_d_2527_245)">
<path d="M605.829 135.751C630.341 161.504 594.989 234.944 526.868 299.783C458.747 364.622 383.653 396.308 359.141 370.555C334.628 344.802 369.98 271.362 438.101 206.523C506.222 141.684 581.316 109.998 605.829 135.751Z" fill="url(#paint6_radial_2527_245)"/>
<path d="M605.829 135.751C630.341 161.504 594.989 234.944 526.868 299.783C458.747 364.622 383.653 396.308 359.141 370.555C334.628 344.802 369.98 271.362 438.101 206.523C506.222 141.684 581.316 109.998 605.829 135.751Z" fill="black" fill-opacity="0.1"/>
<path d="M525.752 298.61C559.708 266.29 585.443 231.874 599.627 202.408C606.722 187.669 610.888 174.249 611.798 162.997C612.708 151.745 610.354 142.854 604.656 136.868C598.958 130.881 590.194 128.091 578.91 128.445C567.628 128.799 554.018 132.298 538.947 138.657C508.817 151.37 473.173 175.376 439.217 207.696C405.261 240.016 379.526 274.432 365.342 303.899C358.247 318.637 354.081 332.058 353.171 343.309C352.261 354.562 354.616 363.452 360.313 369.439C366.011 375.425 374.775 378.215 386.059 377.861C397.341 377.507 410.951 374.008 426.022 367.649C456.152 354.936 491.796 330.931 525.752 298.61Z" stroke="#FFED2C" stroke-width="3.23819"/>
</g>
</g>
<g filter="url(#filter5_d_2527_245)">
<path d="M409.47 534.32C315.973 486.275 254.904 418.674 273.067 383.328L300.994 328.829L639.575 502.813C628.693 523.99 622.417 539.249 613.886 554.12C595.723 589.466 502.966 582.364 409.47 534.32Z" fill="url(#paint7_linear_2527_245)"/>
<path d="M275.469 384.562L275.47 384.559L302.165 332.467L635.943 503.984C631.891 511.955 628.477 519.088 625.33 525.663C624.681 527.019 624.043 528.351 623.414 529.662C619.421 537.978 615.756 545.433 611.544 552.776L611.513 552.83L611.484 552.886C607.414 560.807 599.01 566.652 586.704 570.093C574.414 573.529 558.549 574.465 540.172 572.802C503.435 569.476 457.207 555.814 410.704 531.918C364.17 508.005 325.814 479.277 301.4 452.252C289.186 438.731 280.561 425.747 276.09 414.107C271.619 402.465 271.404 392.473 275.469 384.562Z" stroke="#FFED2C" stroke-width="5.40164"/>
</g>
<path d="M301.048 328.938C282.885 364.284 343.955 431.885 437.451 479.93C530.948 527.974 621.466 538.268 639.629 502.922C657.792 467.576 596.722 399.974 503.226 351.93C409.73 303.885 319.211 293.592 301.048 328.938Z" fill="white"/>
<path d="M301.048 328.938C282.885 364.284 343.955 431.885 437.451 479.93C530.948 527.974 621.466 538.268 639.629 502.922C657.792 467.576 596.722 399.974 503.226 351.93C409.73 303.885 319.211 293.592 301.048 328.938Z" fill="url(#paint8_radial_2527_245)" fill-opacity="0.3"/>
<g filter="url(#filter6_d_2527_245)">
<path d="M301.048 328.938C282.885 364.284 343.955 431.885 437.451 479.93C530.948 527.974 621.466 538.268 639.629 502.922C657.792 467.576 596.722 399.974 503.226 351.93C409.73 303.885 319.211 293.592 301.048 328.938Z" fill="url(#paint9_radial_2527_245)"/>
<path d="M438.686 477.528C392.151 453.615 353.796 424.887 329.382 397.862C317.168 384.341 308.543 371.357 304.072 359.717C299.6 348.075 299.386 338.083 303.451 330.172C307.516 322.262 315.765 316.618 327.834 313.476C339.9 310.334 355.478 309.787 373.582 311.846C409.769 315.961 455.457 330.42 501.992 354.332C548.526 378.245 586.881 406.973 611.296 433.998C623.51 447.519 632.134 460.503 636.605 472.143C641.077 483.785 641.292 493.777 637.227 501.688C633.162 509.598 624.913 515.242 612.844 518.384C600.777 521.526 585.199 522.073 567.095 520.014C530.908 515.899 485.22 501.44 438.686 477.528Z" stroke="#FFED2C" stroke-width="5.40164"/>
</g>
<rect x="749.243" y="311.316" width="33.26" height="16.5819" transform="rotate(-26.7137 749.243 311.316)" fill="#FFED2C"/>
<rect x="787.442" y="296.03" width="27.8188" height="13.8692" transform="rotate(-26.7137 787.442 296.03)" fill="#FFED2C"/>
<path fill-rule="evenodd" clip-rule="evenodd" d="M495.989 448.442L783.71 406.319L872.68 283.876L766.992 266.592L647.543 344.611L496.015 448.429L495.999 448.437L495.989 448.442ZM784.823 333.685C784.586 351.83 778.121 367.975 770.382 369.746C762.642 371.516 756.56 358.241 756.796 340.095C757.032 321.949 763.498 305.804 771.237 304.034C778.976 302.264 785.059 315.539 784.823 333.685ZM816.185 314.722C815.989 329.778 810.625 343.174 804.203 344.643C797.782 346.112 792.735 335.097 792.931 320.041C793.127 304.985 798.491 291.589 804.913 290.12C811.335 288.651 816.381 299.666 816.185 314.722Z" fill="#FFED2C"/>
<path d="M627.218 333.519L677.38 304.488L643.566 318.654L653.343 303.86L576.334 330.596L632.554 321.535L627.218 333.519Z" fill="#FFED2C"/>
<path d="M705.523 438.018L666.982 444.171L691.659 443.421L681.944 450.364L736.811 452.129L704.021 444.937L705.523 438.018Z" fill="#FFED2C"/>
</g>
<defs>
<filter id="filter0_d_2527_245" x="-542.48" y="411.17" width="1087.86" height="648.738" filterUnits="userSpaceOnUse" color-interpolation-filters="sRGB">
<feFlood flood-opacity="0" result="BackgroundImageFix"/>
<feColorMatrix in="SourceAlpha" type="matrix" values="0 0 0 0 0 0 0 0 0 0 0 0 0 0 0 0 0 0 127 0" result="hardAlpha"/>
<feOffset dy="2.08236"/>
<feGaussianBlur stdDeviation="14.056"/>
<feComposite in2="hardAlpha" operator="out"/>
<feColorMatrix type="matrix" values="0 0 0 0 1 0 0 0 0 0.93119 0 0 0 0 0.17428 0 0 0 1 0"/>
<feBlend mode="normal" in2="BackgroundImageFix" result="effect1_dropShadow_2527_245"/>
<feBlend mode="normal" in="SourceGraphic" in2="effect1_dropShadow_2527_245" result="shape"/>
</filter>
<filter id="filter1_d_2527_245" x="227.28" y="534.261" width="254.061" height="228.714" filterUnits="userSpaceOnUse" color-interpolation-filters="sRGB">
<feFlood flood-opacity="0" result="BackgroundImageFix"/>
<feColorMatrix in="SourceAlpha" type="matrix" values="0 0 0 0 0 0 0 0 0 0 0 0 0 0 0 0 0 0 127 0" result="hardAlpha"/>
<feOffset/>
<feGaussianBlur stdDeviation="8.67787"/>
<feComposite in2="hardAlpha" operator="out"/>
<feColorMatrix type="matrix" values="0 0 0 0 1 0 0 0 0 0.93119 0 0 0 0 0.17428 0 0 0 0.8 0"/>
<feBlend mode="normal" in2="BackgroundImageFix" result="effect1_dropShadow_2527_245"/>
<feBlend mode="normal" in="SourceGraphic" in2="effect1_dropShadow_2527_245" result="shape"/>
</filter>
<filter id="filter2_d_2527_245" x="223.943" y="564.738" width="235.765" height="206.828" filterUnits="userSpaceOnUse" color-interpolation-filters="sRGB">
<feFlood flood-opacity="0" result="BackgroundImageFix"/>
<feColorMatrix in="SourceAlpha" type="matrix" values="0 0 0 0 0 0 0 0 0 0 0 0 0 0 0 0 0 0 127 0" result="hardAlpha"/>
<feOffset/>
<feGaussianBlur stdDeviation="8.67787"/>
<feComposite in2="hardAlpha" operator="out"/>
<feColorMatrix type="matrix" values="0 0 0 0 1 0 0 0 0 0.93119 0 0 0 0 0.17428 0 0 0 0.8 0"/>
<feBlend mode="normal" in2="BackgroundImageFix" result="effect1_dropShadow_2527_245"/>
<feBlend mode="normal" in="SourceGraphic" in2="effect1_dropShadow_2527_245" result="shape"/>
</filter>
<filter id="filter3_d_2527_245" x="313.787" y="90.2708" width="382.942" height="372.374" filterUnits="userSpaceOnUse" color-interpolation-filters="sRGB">
<feFlood flood-opacity="0" result="BackgroundImageFix"/>
<feColorMatrix in="SourceAlpha" type="matrix" values="0 0 0 0 0 0 0 0 0 0 0 0 0 0 0 0 0 0 127 0" result="hardAlpha"/>
<feOffset/>
<feGaussianBlur stdDeviation="22.6869"/>
<feComposite in2="hardAlpha" operator="out"/>
<feColorMatrix type="matrix" values="0 0 0 0 1 0 0 0 0 0.93119 0 0 0 0 0.17428 0 0 0 0.8 0"/>
<feBlend mode="normal" in2="BackgroundImageFix" result="effect1_dropShadow_2527_245"/>
<feBlend mode="normal" in="SourceGraphic" in2="effect1_dropShadow_2527_245" result="shape"/>
</filter>
<filter id="filter4_d_2527_245" x="324.162" y="99.5951" width="316.646" height="307.115" filterUnits="userSpaceOnUse" color-interpolation-filters="sRGB">
<feFlood flood-opacity="0" result="BackgroundImageFix"/>
<feColorMatrix in="SourceAlpha" type="matrix" values="0 0 0 0 0 0 0 0 0 0 0 0 0 0 0 0 0 0 127 0" result="hardAlpha"/>
<feOffset/>
<feGaussianBlur stdDeviation="13.6004"/>
<feComposite in2="hardAlpha" operator="out"/>
<feColorMatrix type="matrix" values="0 0 0 0 1 0 0 0 0 0.93119 0 0 0 0 0.17428 0 0 0 0.8 0"/>
<feBlend mode="normal" in2="BackgroundImageFix" result="effect1_dropShadow_2527_245"/>
<feBlend mode="normal" in="SourceGraphic" in2="effect1_dropShadow_2527_245" result="shape"/>
</filter>
<filter id="filter5_d_2527_245" x="224.496" y="283.455" width="460.453" height="338.223" filterUnits="userSpaceOnUse" color-interpolation-filters="sRGB">
<feFlood flood-opacity="0" result="BackgroundImageFix"/>
<feColorMatrix in="SourceAlpha" type="matrix" values="0 0 0 0 0 0 0 0 0 0 0 0 0 0 0 0 0 0 127 0" result="hardAlpha"/>
<feOffset/>
<feGaussianBlur stdDeviation="22.6869"/>
<feComposite in2="hardAlpha" operator="out"/>
<feColorMatrix type="matrix" values="0 0 0 0 1 0 0 0 0 0.93119 0 0 0 0 0.17428 0 0 0 0.8 0"/>
<feBlend mode="normal" in2="BackgroundImageFix" result="effect1_dropShadow_2527_245"/>
<feBlend mode="normal" in="SourceGraphic" in2="effect1_dropShadow_2527_245" result="shape"/>
</filter>
<filter id="filter6_d_2527_245" x="252.477" y="262.551" width="435.723" height="306.758" filterUnits="userSpaceOnUse" color-interpolation-filters="sRGB">
<feFlood flood-opacity="0" result="BackgroundImageFix"/>
<feColorMatrix in="SourceAlpha" type="matrix" values="0 0 0 0 0 0 0 0 0 0 0 0 0 0 0 0 0 0 127 0" result="hardAlpha"/>
<feOffset/>
<feGaussianBlur stdDeviation="22.6869"/>
<feComposite in2="hardAlpha" operator="out"/>
<feColorMatrix type="matrix" values="0 0 0 0 1 0 0 0 0 0.93119 0 0 0 0 0.17428 0 0 0 0.8 0"/>
<feBlend mode="normal" in2="BackgroundImageFix" result="effect1_dropShadow_2527_245"/>
<feBlend mode="normal" in="SourceGraphic" in2="effect1_dropShadow_2527_245" result="shape"/>
</filter>
<radialGradient id="paint0_radial_2527_245" cx="0" cy="0" r="1" gradientUnits="userSpaceOnUse" gradientTransform="translate(782.841 386.953) rotate(90) scale(399.324 661.3)">
<stop stop-color="#FFED2C" stop-opacity="0.3"/>
<stop offset="1" stop-color="#FFED2C" stop-opacity="0"/>
</radialGradient>
<radialGradient id="paint1_radial_2527_245" cx="0" cy="0" r="1" gradientUnits="userSpaceOnUse" gradientTransform="translate(408.308 370.416) rotate(-13.6222) scale(556.46 443.041)">
<stop stop-color="#FFED2C"/>
<stop offset="1" stop-color="#998E1B" stop-opacity="0"/>
</radialGradient>
<linearGradient id="paint2_linear_2527_245" x1="370.08" y1="573.221" x2="316.857" y2="649.988" gradientUnits="userSpaceOnUse">
<stop offset="0.197699" stop-color="#FFED2C"/>
<stop offset="1" stop-color="#FF962C"/>
</linearGradient>
<radialGradient id="paint3_radial_2527_245" cx="0" cy="0" r="1" gradientUnits="userSpaceOnUse" gradientTransform="translate(296.302 623.958) rotate(44.1245) scale(206.785 302.553)">
<stop offset="0.469982" stop-color="#FFED2C"/>
<stop offset="1" stop-color="#FF962C"/>
</radialGradient>
<linearGradient id="paint4_linear_2527_245" x1="543.014" y1="376.21" x2="458.492" y2="274.246" gradientUnits="userSpaceOnUse">
<stop offset="0.197699" stop-color="#FFED2C"/>
<stop offset="1" stop-color="#FF962C"/>
</linearGradient>
<radialGradient id="paint5_radial_2527_245" cx="0" cy="0" r="1" gradientUnits="userSpaceOnUse" gradientTransform="translate(454.185 337.378) rotate(-98.1866) scale(135.156 303.317)">
<stop stop-color="#C2BFBE"/>
<stop offset="1" stop-color="white"/>
</radialGradient>
<radialGradient id="paint6_radial_2527_245" cx="0" cy="0" r="1" gradientUnits="userSpaceOnUse" gradientTransform="translate(426.412 318.751) rotate(-49.4487) scale(281.266 434.32)">
<stop offset="0.469982" stop-color="#FFED2C"/>
<stop offset="1" stop-color="#FF962C"/>
</radialGradient>
<linearGradient id="paint7_linear_2527_245" x1="444.242" y1="566.975" x2="502.719" y2="430.981" gradientUnits="userSpaceOnUse">
<stop offset="0.197699" stop-color="#FFED2C"/>
<stop offset="1" stop-color="#FF962C"/>
</linearGradient>
<radialGradient id="paint8_radial_2527_245" cx="0" cy="0" r="1" gradientUnits="userSpaceOnUse" gradientTransform="translate(527.248 497.321) rotate(-98.2025) scale(151.068 339.029)">
<stop stop-color="#C2BFBE"/>
<stop offset="1" stop-color="white"/>
</radialGradient>
<radialGradient id="paint9_radial_2527_245" cx="0" cy="0" r="1" gradientUnits="userSpaceOnUse" gradientTransform="translate(551.154 468.588) rotate(-146.94) scale(314.381 485.455)">
<stop offset="0.469982" stop-color="#FFED2C"/>
<stop offset="1" stop-color="#FF962C"/>
</radialGradient>
<clipPath id="clip0_2527_245">
<rect width="1024" height="768" fill="white"/>
</clipPath>
</defs>
</svg>
